<mxfile host="Electron" agent="Mozilla/5.0 (Windows NT 10.0; Win64; x64) AppleWebKit/537.36 (KHTML, like Gecko) draw.io/26.0.16 Chrome/132.0.6834.196 Electron/34.2.0 Safari/537.36" version="26.0.16">
  <diagram name="1 oldal" id="pmFwLKqt7-6VzBFXsTF3">
    <mxGraphModel dx="780" dy="1719" grid="1" gridSize="10" guides="1" tooltips="1" connect="1" arrows="1" fold="1" page="1" pageScale="1" pageWidth="827" pageHeight="1169" math="0" shadow="0">
      <root>
        <mxCell id="0" />
        <mxCell id="1" parent="0" />
        <mxCell id="nsYyZSQY54Bo-bGTWBWe-1" value="" style="ellipse;whiteSpace=wrap;html=1;strokeWidth=2;" parent="1" vertex="1">
          <mxGeometry x="5" y="180" width="90" height="60" as="geometry" />
        </mxCell>
        <mxCell id="p32mZgeGMVEFdkPh0mpe-2" value="&lt;b&gt;Termék&lt;/b&gt;" style="rounded=0;whiteSpace=wrap;html=1;strokeWidth=2;" parent="1" vertex="1">
          <mxGeometry x="170" y="180" width="120" height="60" as="geometry" />
        </mxCell>
        <mxCell id="p32mZgeGMVEFdkPh0mpe-3" value="&lt;b&gt;Gyártó&lt;/b&gt;" style="rounded=0;whiteSpace=wrap;html=1;strokeWidth=2;" parent="1" vertex="1">
          <mxGeometry x="470" y="180" width="120" height="60" as="geometry" />
        </mxCell>
        <mxCell id="p32mZgeGMVEFdkPh0mpe-8" value="adószám" style="ellipse;whiteSpace=wrap;html=1;strokeWidth=2;" parent="1" vertex="1">
          <mxGeometry x="390" y="330" width="80" height="50" as="geometry" />
        </mxCell>
        <mxCell id="p32mZgeGMVEFdkPh0mpe-9" value="név" style="ellipse;whiteSpace=wrap;html=1;strokeWidth=2;" parent="1" vertex="1">
          <mxGeometry x="490" y="330" width="80" height="50" as="geometry" />
        </mxCell>
        <mxCell id="p32mZgeGMVEFdkPh0mpe-10" value="telephely" style="ellipse;whiteSpace=wrap;html=1;strokeWidth=2;" parent="1" vertex="1">
          <mxGeometry x="590" y="330" width="80" height="50" as="geometry" />
        </mxCell>
        <mxCell id="p32mZgeGMVEFdkPh0mpe-11" value="tkód" style="ellipse;whiteSpace=wrap;html=1;strokeWidth=2;" parent="1" vertex="1">
          <mxGeometry x="90" y="330" width="80" height="50" as="geometry" />
        </mxCell>
        <mxCell id="p32mZgeGMVEFdkPh0mpe-12" value="ear" style="ellipse;whiteSpace=wrap;html=1;strokeWidth=2;" parent="1" vertex="1">
          <mxGeometry x="290" y="330" width="80" height="50" as="geometry" />
        </mxCell>
        <mxCell id="p32mZgeGMVEFdkPh0mpe-13" value="név" style="ellipse;whiteSpace=wrap;html=1;strokeWidth=2;" parent="1" vertex="1">
          <mxGeometry x="190" y="330" width="80" height="50" as="geometry" />
        </mxCell>
        <mxCell id="p32mZgeGMVEFdkPh0mpe-14" value="" style="endArrow=none;html=1;rounded=0;exitX=0.5;exitY=0;exitDx=0;exitDy=0;entryX=0.5;entryY=1;entryDx=0;entryDy=0;strokeWidth=2;" parent="1" source="p32mZgeGMVEFdkPh0mpe-11" target="p32mZgeGMVEFdkPh0mpe-2" edge="1">
          <mxGeometry width="50" height="50" relative="1" as="geometry">
            <mxPoint x="380" y="270" as="sourcePoint" />
            <mxPoint x="430" y="220" as="targetPoint" />
          </mxGeometry>
        </mxCell>
        <mxCell id="p32mZgeGMVEFdkPh0mpe-15" value="" style="endArrow=none;html=1;rounded=0;exitX=0.5;exitY=0;exitDx=0;exitDy=0;entryX=0.5;entryY=1;entryDx=0;entryDy=0;strokeWidth=2;" parent="1" source="p32mZgeGMVEFdkPh0mpe-13" target="p32mZgeGMVEFdkPh0mpe-2" edge="1">
          <mxGeometry width="50" height="50" relative="1" as="geometry">
            <mxPoint x="380" y="270" as="sourcePoint" />
            <mxPoint x="430" y="220" as="targetPoint" />
          </mxGeometry>
        </mxCell>
        <mxCell id="p32mZgeGMVEFdkPh0mpe-16" value="" style="endArrow=none;html=1;rounded=0;exitX=0.5;exitY=0;exitDx=0;exitDy=0;entryX=0.5;entryY=1;entryDx=0;entryDy=0;strokeWidth=2;" parent="1" source="p32mZgeGMVEFdkPh0mpe-12" target="p32mZgeGMVEFdkPh0mpe-2" edge="1">
          <mxGeometry width="50" height="50" relative="1" as="geometry">
            <mxPoint x="380" y="270" as="sourcePoint" />
            <mxPoint x="430" y="220" as="targetPoint" />
          </mxGeometry>
        </mxCell>
        <mxCell id="p32mZgeGMVEFdkPh0mpe-17" value="" style="endArrow=none;html=1;rounded=0;exitX=0.5;exitY=0;exitDx=0;exitDy=0;entryX=0.5;entryY=1;entryDx=0;entryDy=0;strokeWidth=2;" parent="1" source="p32mZgeGMVEFdkPh0mpe-8" target="p32mZgeGMVEFdkPh0mpe-3" edge="1">
          <mxGeometry width="50" height="50" relative="1" as="geometry">
            <mxPoint x="380" y="270" as="sourcePoint" />
            <mxPoint x="430" y="220" as="targetPoint" />
          </mxGeometry>
        </mxCell>
        <mxCell id="p32mZgeGMVEFdkPh0mpe-18" value="" style="endArrow=none;html=1;rounded=0;exitX=0.5;exitY=0;exitDx=0;exitDy=0;entryX=0.5;entryY=1;entryDx=0;entryDy=0;strokeWidth=2;" parent="1" source="p32mZgeGMVEFdkPh0mpe-9" target="p32mZgeGMVEFdkPh0mpe-3" edge="1">
          <mxGeometry width="50" height="50" relative="1" as="geometry">
            <mxPoint x="380" y="270" as="sourcePoint" />
            <mxPoint x="430" y="220" as="targetPoint" />
          </mxGeometry>
        </mxCell>
        <mxCell id="p32mZgeGMVEFdkPh0mpe-19" value="" style="endArrow=none;html=1;rounded=0;exitX=0.5;exitY=0;exitDx=0;exitDy=0;entryX=0.5;entryY=1;entryDx=0;entryDy=0;strokeWidth=2;" parent="1" source="p32mZgeGMVEFdkPh0mpe-10" target="p32mZgeGMVEFdkPh0mpe-3" edge="1">
          <mxGeometry width="50" height="50" relative="1" as="geometry">
            <mxPoint x="380" y="270" as="sourcePoint" />
            <mxPoint x="430" y="220" as="targetPoint" />
          </mxGeometry>
        </mxCell>
        <mxCell id="rqedpCHbO8ctCnr59oq8-1" value="" style="edgeStyle=orthogonalEdgeStyle;rounded=0;orthogonalLoop=1;jettySize=auto;html=1;strokeWidth=2;" parent="1" source="p32mZgeGMVEFdkPh0mpe-6" target="p32mZgeGMVEFdkPh0mpe-3" edge="1">
          <mxGeometry relative="1" as="geometry" />
        </mxCell>
        <mxCell id="p32mZgeGMVEFdkPh0mpe-6" value="T-GY" style="rhombus;whiteSpace=wrap;html=1;strokeWidth=2;" parent="1" vertex="1">
          <mxGeometry x="340" y="170" width="80" height="80" as="geometry" />
        </mxCell>
        <mxCell id="p32mZgeGMVEFdkPh0mpe-32" value="postai cím" style="ellipse;whiteSpace=wrap;html=1;strokeWidth=2;" parent="1" vertex="1">
          <mxGeometry x="700" y="330" width="80" height="50" as="geometry" />
        </mxCell>
        <mxCell id="p32mZgeGMVEFdkPh0mpe-34" value="irányítószám" style="ellipse;whiteSpace=wrap;html=1;strokeWidth=2;" parent="1" vertex="1">
          <mxGeometry x="590" y="420" width="80" height="50" as="geometry" />
        </mxCell>
        <mxCell id="p32mZgeGMVEFdkPh0mpe-35" value="utca" style="ellipse;whiteSpace=wrap;html=1;strokeWidth=2;" parent="1" vertex="1">
          <mxGeometry x="700" y="420" width="80" height="50" as="geometry" />
        </mxCell>
        <mxCell id="p32mZgeGMVEFdkPh0mpe-36" value="házszám" style="ellipse;whiteSpace=wrap;html=1;strokeWidth=2;" parent="1" vertex="1">
          <mxGeometry x="810" y="420" width="80" height="50" as="geometry" />
        </mxCell>
        <mxCell id="p32mZgeGMVEFdkPh0mpe-38" value="" style="endArrow=none;html=1;rounded=0;exitX=0.5;exitY=0;exitDx=0;exitDy=0;entryX=0.5;entryY=1;entryDx=0;entryDy=0;strokeWidth=2;" parent="1" source="p32mZgeGMVEFdkPh0mpe-35" target="p32mZgeGMVEFdkPh0mpe-32" edge="1">
          <mxGeometry width="50" height="50" relative="1" as="geometry">
            <mxPoint x="570" y="530" as="sourcePoint" />
            <mxPoint x="620" y="480" as="targetPoint" />
          </mxGeometry>
        </mxCell>
        <mxCell id="p32mZgeGMVEFdkPh0mpe-40" value="" style="endArrow=none;html=1;rounded=0;exitX=0.5;exitY=0;exitDx=0;exitDy=0;entryX=0.5;entryY=1;entryDx=0;entryDy=0;strokeWidth=2;" parent="1" source="p32mZgeGMVEFdkPh0mpe-32" target="p32mZgeGMVEFdkPh0mpe-3" edge="1">
          <mxGeometry width="50" height="50" relative="1" as="geometry">
            <mxPoint x="460" y="420" as="sourcePoint" />
            <mxPoint x="510" y="370" as="targetPoint" />
          </mxGeometry>
        </mxCell>
        <mxCell id="p32mZgeGMVEFdkPh0mpe-41" value="" style="endArrow=none;html=1;rounded=0;exitX=0.5;exitY=0;exitDx=0;exitDy=0;entryX=0.5;entryY=1;entryDx=0;entryDy=0;strokeWidth=2;" parent="1" source="p32mZgeGMVEFdkPh0mpe-34" target="p32mZgeGMVEFdkPh0mpe-32" edge="1">
          <mxGeometry width="50" height="50" relative="1" as="geometry">
            <mxPoint x="460" y="420" as="sourcePoint" />
            <mxPoint x="510" y="370" as="targetPoint" />
          </mxGeometry>
        </mxCell>
        <mxCell id="p32mZgeGMVEFdkPh0mpe-42" value="" style="endArrow=none;html=1;rounded=0;exitX=0.5;exitY=0;exitDx=0;exitDy=0;strokeWidth=2;" parent="1" source="p32mZgeGMVEFdkPh0mpe-36" edge="1">
          <mxGeometry width="50" height="50" relative="1" as="geometry">
            <mxPoint x="460" y="420" as="sourcePoint" />
            <mxPoint x="740" y="380" as="targetPoint" />
          </mxGeometry>
        </mxCell>
        <mxCell id="p32mZgeGMVEFdkPh0mpe-43" value="egység-db" style="ellipse;whiteSpace=wrap;html=1;perimeterSpacing=0;strokeWidth=2;" parent="1" vertex="1">
          <mxGeometry x="10" y="185" width="80" height="50" as="geometry" />
        </mxCell>
        <mxCell id="p32mZgeGMVEFdkPh0mpe-46" value="" style="endArrow=none;html=1;rounded=0;exitX=0;exitY=0.5;exitDx=0;exitDy=0;strokeWidth=2;entryX=1;entryY=0.5;entryDx=0;entryDy=0;" parent="1" source="p32mZgeGMVEFdkPh0mpe-2" target="nsYyZSQY54Bo-bGTWBWe-1" edge="1">
          <mxGeometry width="50" height="50" relative="1" as="geometry">
            <mxPoint x="460" y="210" as="sourcePoint" />
            <mxPoint x="110" y="230" as="targetPoint" />
          </mxGeometry>
        </mxCell>
        <mxCell id="p32mZgeGMVEFdkPh0mpe-47" value="&lt;b&gt;Alkatrész&lt;/b&gt;" style="rounded=0;whiteSpace=wrap;html=1;strokeWidth=2;" parent="1" vertex="1">
          <mxGeometry x="170" y="-50" width="120" height="60" as="geometry" />
        </mxCell>
        <mxCell id="p32mZgeGMVEFdkPh0mpe-48" value="A-T" style="rhombus;whiteSpace=wrap;html=1;strokeWidth=2;" parent="1" vertex="1">
          <mxGeometry x="190" y="60" width="80" height="80" as="geometry" />
        </mxCell>
        <mxCell id="p32mZgeGMVEFdkPh0mpe-49" value="" style="endArrow=classic;html=1;rounded=0;entryX=0.5;entryY=1;entryDx=0;entryDy=0;exitX=0.5;exitY=0;exitDx=0;exitDy=0;strokeWidth=2;" parent="1" source="p32mZgeGMVEFdkPh0mpe-48" target="p32mZgeGMVEFdkPh0mpe-47" edge="1">
          <mxGeometry width="50" height="50" relative="1" as="geometry">
            <mxPoint x="460" y="160" as="sourcePoint" />
            <mxPoint x="510" y="110" as="targetPoint" />
          </mxGeometry>
        </mxCell>
        <mxCell id="p32mZgeGMVEFdkPh0mpe-50" value="" style="endArrow=classic;html=1;rounded=0;exitX=0.5;exitY=0;exitDx=0;exitDy=0;strokeWidth=2;" parent="1" source="p32mZgeGMVEFdkPh0mpe-48" edge="1">
          <mxGeometry width="50" height="50" relative="1" as="geometry">
            <mxPoint x="460" y="160" as="sourcePoint" />
            <mxPoint x="230" y="20" as="targetPoint" />
          </mxGeometry>
        </mxCell>
        <mxCell id="p32mZgeGMVEFdkPh0mpe-51" value="" style="endArrow=classic;html=1;rounded=0;exitX=0.5;exitY=1;exitDx=0;exitDy=0;entryX=0.5;entryY=0;entryDx=0;entryDy=0;strokeWidth=2;" parent="1" source="p32mZgeGMVEFdkPh0mpe-48" target="p32mZgeGMVEFdkPh0mpe-2" edge="1">
          <mxGeometry width="50" height="50" relative="1" as="geometry">
            <mxPoint x="460" y="160" as="sourcePoint" />
            <mxPoint x="510" y="110" as="targetPoint" />
          </mxGeometry>
        </mxCell>
        <mxCell id="p32mZgeGMVEFdkPh0mpe-52" value="AKód" style="ellipse;whiteSpace=wrap;html=1;strokeWidth=2;" parent="1" vertex="1">
          <mxGeometry x="10" y="-45" width="80" height="50" as="geometry" />
        </mxCell>
        <mxCell id="p32mZgeGMVEFdkPh0mpe-53" value="név" style="ellipse;whiteSpace=wrap;html=1;strokeWidth=2;" parent="1" vertex="1">
          <mxGeometry x="370" y="-45" width="80" height="50" as="geometry" />
        </mxCell>
        <mxCell id="p32mZgeGMVEFdkPh0mpe-56" value="" style="endArrow=none;html=1;rounded=0;exitX=1;exitY=0.5;exitDx=0;exitDy=0;entryX=0;entryY=0.5;entryDx=0;entryDy=0;strokeWidth=2;" parent="1" source="p32mZgeGMVEFdkPh0mpe-52" target="p32mZgeGMVEFdkPh0mpe-47" edge="1">
          <mxGeometry width="50" height="50" relative="1" as="geometry">
            <mxPoint x="180" y="120" as="sourcePoint" />
            <mxPoint x="230" y="70" as="targetPoint" />
          </mxGeometry>
        </mxCell>
        <mxCell id="p32mZgeGMVEFdkPh0mpe-57" value="" style="endArrow=none;html=1;rounded=0;exitX=1;exitY=0.5;exitDx=0;exitDy=0;entryX=0;entryY=0.5;entryDx=0;entryDy=0;strokeWidth=2;" parent="1" source="p32mZgeGMVEFdkPh0mpe-47" target="p32mZgeGMVEFdkPh0mpe-53" edge="1">
          <mxGeometry width="50" height="50" relative="1" as="geometry">
            <mxPoint x="180" y="120" as="sourcePoint" />
            <mxPoint x="230" y="70" as="targetPoint" />
          </mxGeometry>
        </mxCell>
        <mxCell id="61--NI90uDEsY46eTGlr-1" value="&lt;b&gt;Rendelés&lt;/b&gt;" style="rounded=0;whiteSpace=wrap;html=1;strokeWidth=2;" parent="1" vertex="1">
          <mxGeometry x="590" y="70" width="120" height="60" as="geometry" />
        </mxCell>
        <mxCell id="61--NI90uDEsY46eTGlr-8" value="T-R" style="rhombus;whiteSpace=wrap;html=1;strokeWidth=2;" parent="1" vertex="1">
          <mxGeometry x="340" y="60" width="80" height="80" as="geometry" />
        </mxCell>
        <mxCell id="61--NI90uDEsY46eTGlr-9" value="" style="endArrow=classic;html=1;rounded=0;exitX=1;exitY=0.5;exitDx=0;exitDy=0;entryX=0;entryY=0.5;entryDx=0;entryDy=0;strokeWidth=2;" parent="1" source="61--NI90uDEsY46eTGlr-8" target="61--NI90uDEsY46eTGlr-1" edge="1">
          <mxGeometry width="50" height="50" relative="1" as="geometry">
            <mxPoint x="390" y="120" as="sourcePoint" />
            <mxPoint x="440" y="70" as="targetPoint" />
          </mxGeometry>
        </mxCell>
        <mxCell id="61--NI90uDEsY46eTGlr-10" value="" style="endArrow=classic;html=1;rounded=0;exitX=1;exitY=0.5;exitDx=0;exitDy=0;strokeWidth=2;" parent="1" source="61--NI90uDEsY46eTGlr-8" edge="1">
          <mxGeometry width="50" height="50" relative="1" as="geometry">
            <mxPoint x="390" y="120" as="sourcePoint" />
            <mxPoint x="580" y="100" as="targetPoint" />
          </mxGeometry>
        </mxCell>
        <mxCell id="61--NI90uDEsY46eTGlr-11" value="" style="endArrow=classic;html=1;rounded=0;exitX=0;exitY=0.5;exitDx=0;exitDy=0;entryX=0.5;entryY=0;entryDx=0;entryDy=0;strokeWidth=2;" parent="1" source="61--NI90uDEsY46eTGlr-8" target="p32mZgeGMVEFdkPh0mpe-2" edge="1">
          <mxGeometry width="50" height="50" relative="1" as="geometry">
            <mxPoint x="390" y="130" as="sourcePoint" />
            <mxPoint x="440" y="80" as="targetPoint" />
          </mxGeometry>
        </mxCell>
        <mxCell id="61--NI90uDEsY46eTGlr-13" value="rkód" style="ellipse;whiteSpace=wrap;html=1;strokeWidth=2;" parent="1" vertex="1">
          <mxGeometry x="870" y="10" width="80" height="50" as="geometry" />
        </mxCell>
        <mxCell id="61--NI90uDEsY46eTGlr-14" value="dátum" style="ellipse;whiteSpace=wrap;html=1;strokeWidth=2;" parent="1" vertex="1">
          <mxGeometry x="870" y="75" width="80" height="50" as="geometry" />
        </mxCell>
        <mxCell id="61--NI90uDEsY46eTGlr-15" value="darabszám" style="ellipse;whiteSpace=wrap;html=1;strokeWidth=2;" parent="1" vertex="1">
          <mxGeometry x="870" y="140" width="80" height="50" as="geometry" />
        </mxCell>
        <mxCell id="61--NI90uDEsY46eTGlr-16" value="&lt;i&gt;ár&lt;/i&gt;" style="ellipse;whiteSpace=wrap;html=1;strokeWidth=2;dashed=1;" parent="1" vertex="1">
          <mxGeometry x="870" y="-50" width="80" height="50" as="geometry" />
        </mxCell>
        <mxCell id="61--NI90uDEsY46eTGlr-17" value="" style="endArrow=none;html=1;rounded=0;exitX=1;exitY=0.5;exitDx=0;exitDy=0;entryX=0;entryY=0.5;entryDx=0;entryDy=0;strokeWidth=2;" parent="1" source="61--NI90uDEsY46eTGlr-1" target="61--NI90uDEsY46eTGlr-16" edge="1">
          <mxGeometry width="50" height="50" relative="1" as="geometry">
            <mxPoint x="750" y="130" as="sourcePoint" />
            <mxPoint x="800" y="80" as="targetPoint" />
          </mxGeometry>
        </mxCell>
        <mxCell id="61--NI90uDEsY46eTGlr-18" value="" style="endArrow=none;html=1;rounded=0;exitX=1;exitY=0.5;exitDx=0;exitDy=0;entryX=0;entryY=0.5;entryDx=0;entryDy=0;strokeWidth=2;" parent="1" source="61--NI90uDEsY46eTGlr-1" target="61--NI90uDEsY46eTGlr-13" edge="1">
          <mxGeometry width="50" height="50" relative="1" as="geometry">
            <mxPoint x="750" y="130" as="sourcePoint" />
            <mxPoint x="800" y="80" as="targetPoint" />
          </mxGeometry>
        </mxCell>
        <mxCell id="61--NI90uDEsY46eTGlr-19" value="" style="endArrow=none;html=1;rounded=0;exitX=1;exitY=0.5;exitDx=0;exitDy=0;entryX=0;entryY=0.5;entryDx=0;entryDy=0;strokeWidth=2;" parent="1" source="61--NI90uDEsY46eTGlr-1" target="61--NI90uDEsY46eTGlr-14" edge="1">
          <mxGeometry width="50" height="50" relative="1" as="geometry">
            <mxPoint x="750" y="130" as="sourcePoint" />
            <mxPoint x="800" y="80" as="targetPoint" />
          </mxGeometry>
        </mxCell>
        <mxCell id="61--NI90uDEsY46eTGlr-20" value="" style="endArrow=none;html=1;rounded=0;exitX=1;exitY=0.5;exitDx=0;exitDy=0;entryX=0;entryY=0.5;entryDx=0;entryDy=0;strokeWidth=2;" parent="1" source="61--NI90uDEsY46eTGlr-1" target="61--NI90uDEsY46eTGlr-15" edge="1">
          <mxGeometry width="50" height="50" relative="1" as="geometry">
            <mxPoint x="750" y="130" as="sourcePoint" />
            <mxPoint x="800" y="80" as="targetPoint" />
          </mxGeometry>
        </mxCell>
        <mxCell id="61--NI90uDEsY46eTGlr-21" value="&lt;b&gt;Vevő&lt;/b&gt;" style="rounded=0;whiteSpace=wrap;html=1;strokeWidth=2;" parent="1" vertex="1">
          <mxGeometry x="590" y="-270" width="120" height="60" as="geometry" />
        </mxCell>
        <mxCell id="61--NI90uDEsY46eTGlr-22" value="V-R" style="rhombus;whiteSpace=wrap;html=1;strokeWidth=2;" parent="1" vertex="1">
          <mxGeometry x="610" y="-110" width="80" height="80" as="geometry" />
        </mxCell>
        <mxCell id="61--NI90uDEsY46eTGlr-23" value="vkód" style="ellipse;whiteSpace=wrap;html=1;strokeWidth=2;" parent="1" vertex="1">
          <mxGeometry x="490" y="-410" width="80" height="50" as="geometry" />
        </mxCell>
        <mxCell id="61--NI90uDEsY46eTGlr-24" value="lakcím" style="ellipse;whiteSpace=wrap;html=1;strokeWidth=2;" parent="1" vertex="1">
          <mxGeometry x="730" y="-410" width="80" height="50" as="geometry" />
        </mxCell>
        <mxCell id="61--NI90uDEsY46eTGlr-25" value="név" style="ellipse;whiteSpace=wrap;html=1;strokeWidth=2;" parent="1" vertex="1">
          <mxGeometry x="610" y="-410" width="80" height="50" as="geometry" />
        </mxCell>
        <mxCell id="61--NI90uDEsY46eTGlr-26" value="" style="endArrow=none;html=1;rounded=0;strokeWidth=2;exitX=0.5;exitY=1;exitDx=0;exitDy=0;entryX=0.5;entryY=0;entryDx=0;entryDy=0;" parent="1" source="61--NI90uDEsY46eTGlr-23" target="61--NI90uDEsY46eTGlr-21" edge="1">
          <mxGeometry width="50" height="50" relative="1" as="geometry">
            <mxPoint x="550" y="-180" as="sourcePoint" />
            <mxPoint x="600" y="-230" as="targetPoint" />
          </mxGeometry>
        </mxCell>
        <mxCell id="61--NI90uDEsY46eTGlr-27" value="" style="endArrow=none;html=1;rounded=0;exitX=0.5;exitY=1;exitDx=0;exitDy=0;entryX=0.5;entryY=0;entryDx=0;entryDy=0;strokeWidth=2;" parent="1" source="61--NI90uDEsY46eTGlr-25" target="61--NI90uDEsY46eTGlr-21" edge="1">
          <mxGeometry width="50" height="50" relative="1" as="geometry">
            <mxPoint x="550" y="-180" as="sourcePoint" />
            <mxPoint x="600" y="-230" as="targetPoint" />
          </mxGeometry>
        </mxCell>
        <mxCell id="61--NI90uDEsY46eTGlr-28" value="" style="endArrow=none;html=1;rounded=0;exitX=0.5;exitY=1;exitDx=0;exitDy=0;strokeWidth=2;entryX=0.5;entryY=0;entryDx=0;entryDy=0;" parent="1" source="61--NI90uDEsY46eTGlr-24" target="61--NI90uDEsY46eTGlr-21" edge="1">
          <mxGeometry width="50" height="50" relative="1" as="geometry">
            <mxPoint x="550" y="-180" as="sourcePoint" />
            <mxPoint x="600" y="-230" as="targetPoint" />
          </mxGeometry>
        </mxCell>
        <mxCell id="61--NI90uDEsY46eTGlr-32" value="" style="endArrow=none;html=1;rounded=0;strokeWidth=2;exitX=1;exitY=0.5;exitDx=0;exitDy=0;entryX=0;entryY=0.5;entryDx=0;entryDy=0;" parent="1" source="p32mZgeGMVEFdkPh0mpe-2" target="p32mZgeGMVEFdkPh0mpe-6" edge="1">
          <mxGeometry width="50" height="50" relative="1" as="geometry">
            <mxPoint x="420" y="160" as="sourcePoint" />
            <mxPoint x="470" y="110" as="targetPoint" />
          </mxGeometry>
        </mxCell>
        <mxCell id="rqedpCHbO8ctCnr59oq8-2" value="" style="endArrow=classic;html=1;rounded=0;exitX=0;exitY=0.5;exitDx=0;exitDy=0;entryX=1;entryY=0.5;entryDx=0;entryDy=0;" parent="1" source="p32mZgeGMVEFdkPh0mpe-6" target="p32mZgeGMVEFdkPh0mpe-2" edge="1">
          <mxGeometry width="50" height="50" relative="1" as="geometry">
            <mxPoint x="290" y="230" as="sourcePoint" />
            <mxPoint x="340" y="180" as="targetPoint" />
          </mxGeometry>
        </mxCell>
        <mxCell id="rqedpCHbO8ctCnr59oq8-3" value="" style="endArrow=none;html=1;rounded=0;exitX=0.5;exitY=1;exitDx=0;exitDy=0;entryX=0.5;entryY=0;entryDx=0;entryDy=0;strokeWidth=2;" parent="1" source="61--NI90uDEsY46eTGlr-22" target="61--NI90uDEsY46eTGlr-1" edge="1">
          <mxGeometry width="50" height="50" relative="1" as="geometry">
            <mxPoint x="630" y="40" as="sourcePoint" />
            <mxPoint x="680" y="-10" as="targetPoint" />
          </mxGeometry>
        </mxCell>
        <mxCell id="rqedpCHbO8ctCnr59oq8-4" value="" style="endArrow=classic;html=1;rounded=0;exitX=0.5;exitY=0;exitDx=0;exitDy=0;entryX=0.5;entryY=1;entryDx=0;entryDy=0;strokeWidth=2;" parent="1" source="61--NI90uDEsY46eTGlr-22" target="61--NI90uDEsY46eTGlr-21" edge="1">
          <mxGeometry width="50" height="50" relative="1" as="geometry">
            <mxPoint x="630" y="-150" as="sourcePoint" />
            <mxPoint x="680" y="-200" as="targetPoint" />
          </mxGeometry>
        </mxCell>
        <mxCell id="0ZJtNIEDcVMAzBIcy5NW-1" value="" style="endArrow=classic;html=1;rounded=0;exitX=0.5;exitY=1;exitDx=0;exitDy=0;strokeWidth=2;" parent="1" source="p32mZgeGMVEFdkPh0mpe-48" edge="1">
          <mxGeometry width="50" height="50" relative="1" as="geometry">
            <mxPoint x="280" y="110" as="sourcePoint" />
            <mxPoint x="230" y="170" as="targetPoint" />
          </mxGeometry>
        </mxCell>
        <mxCell id="_sNbFol0evlu-RyYFNAm-1" value="Irányítószám" style="ellipse;whiteSpace=wrap;html=1;strokeWidth=2;" vertex="1" parent="1">
          <mxGeometry x="630" y="-520" width="80" height="50" as="geometry" />
        </mxCell>
        <mxCell id="_sNbFol0evlu-RyYFNAm-2" value="utca" style="ellipse;whiteSpace=wrap;html=1;strokeWidth=2;" vertex="1" parent="1">
          <mxGeometry x="827" y="-520" width="80" height="50" as="geometry" />
        </mxCell>
        <mxCell id="_sNbFol0evlu-RyYFNAm-3" value="város" style="ellipse;whiteSpace=wrap;html=1;strokeWidth=2;" vertex="1" parent="1">
          <mxGeometry x="730" y="-520" width="80" height="50" as="geometry" />
        </mxCell>
        <mxCell id="_sNbFol0evlu-RyYFNAm-4" value="" style="endArrow=none;html=1;rounded=0;strokeWidth=2;entryX=0.5;entryY=1;entryDx=0;entryDy=0;exitX=0.5;exitY=0;exitDx=0;exitDy=0;" edge="1" parent="1" source="61--NI90uDEsY46eTGlr-24" target="_sNbFol0evlu-RyYFNAm-1">
          <mxGeometry width="50" height="50" relative="1" as="geometry">
            <mxPoint x="610" y="-440" as="sourcePoint" />
            <mxPoint x="660" y="-490" as="targetPoint" />
          </mxGeometry>
        </mxCell>
        <mxCell id="_sNbFol0evlu-RyYFNAm-5" value="" style="endArrow=none;html=1;rounded=0;entryX=0.5;entryY=1;entryDx=0;entryDy=0;exitX=0.5;exitY=0;exitDx=0;exitDy=0;strokeWidth=2;" edge="1" parent="1" source="61--NI90uDEsY46eTGlr-24" target="_sNbFol0evlu-RyYFNAm-3">
          <mxGeometry width="50" height="50" relative="1" as="geometry">
            <mxPoint x="610" y="-440" as="sourcePoint" />
            <mxPoint x="660" y="-490" as="targetPoint" />
          </mxGeometry>
        </mxCell>
        <mxCell id="_sNbFol0evlu-RyYFNAm-6" value="" style="endArrow=none;html=1;rounded=0;exitX=0.5;exitY=1;exitDx=0;exitDy=0;entryX=0.5;entryY=0;entryDx=0;entryDy=0;strokeWidth=2;" edge="1" parent="1" source="_sNbFol0evlu-RyYFNAm-2" target="61--NI90uDEsY46eTGlr-24">
          <mxGeometry width="50" height="50" relative="1" as="geometry">
            <mxPoint x="610" y="-440" as="sourcePoint" />
            <mxPoint x="660" y="-490" as="targetPoint" />
          </mxGeometry>
        </mxCell>
      </root>
    </mxGraphModel>
  </diagram>
</mxfile>
